<?xml version="1.0" encoding="UTF-8"?>
<!DOCTYPE svg PUBLIC "-//W3C//DTD SVG 1.1//EN" "http://www.w3.org/Graphics/SVG/1.1/DTD/svg11.dtd">
<svg xmlns="http://www.w3.org/2000/svg" version="1.1" width="5334px" height="2047px" style="shape-rendering:geometricPrecision; text-rendering:geometricPrecision; image-rendering:optimizeQuality; fill-rule:evenodd; clip-rule:evenodd" xmlns:xlink="http://www.w3.org/1999/xlink">
<g><path style="opacity:0.994" fill="#fefffe" d="M 183.5,190.5 C 1838.83,190.5 3494.17,190.5 5149.5,190.5C 5149.5,746.167 5149.5,1301.83 5149.5,1857.5C 4327.83,1857.67 3506.17,1857.5 2684.5,1857C 2484.31,1579.64 2284.31,1302.14 2084.5,1024.5C 2164.84,1023.95 2245.18,1023.12 2325.5,1022C 2358.33,1019.39 2388.66,1009.39 2416.5,992C 2443.81,972.618 2459.64,946.118 2464,912.5C 2469.36,881.738 2466.69,851.738 2456,822.5C 2439.25,786.758 2411.75,763.591 2373.5,753C 2357.45,748.456 2341.12,745.456 2324.5,744C 2179.84,742.702 2035.18,742.036 1890.5,742C 1839.46,667.413 1788.29,592.913 1737,518.5C 1736.52,517.552 1736.35,516.552 1736.5,515.5C 1923.83,515.333 2111.17,515.5 2298.5,516C 2348.54,514.876 2398.2,518.543 2447.5,527C 2486.12,534.096 2522.79,546.763 2557.5,565C 2623.73,607.068 2669.4,665.401 2694.5,740C 2724.37,830.907 2721.54,920.74 2686,1009.5C 2641.73,1104.75 2567.9,1162.25 2464.5,1182C 2599.45,1354.62 2734.79,1526.95 2870.5,1699C 3577.83,1699.5 4285.17,1699.67 4992.5,1699.5C 4992.5,1248.83 4992.5,798.167 4992.5,347.5C 3441.83,347.5 1891.17,347.5 340.5,347.5C 340.5,798.167 340.5,1248.83 340.5,1699.5C 1036.17,1699.17 1731.83,1699.5 2427.5,1700.5C 2465.22,1752.22 2502.55,1804.22 2539.5,1856.5C 1754.17,1857.5 968.834,1857.83 183.5,1857.5C 183.5,1301.83 183.5,746.167 183.5,190.5 Z"/></g>
<g><path style="opacity:0.995" fill="#fefffe" d="M 2702.5,515.5 C 2788.5,515.5 2874.5,515.5 2960.5,515.5C 2960.5,852.5 2960.5,1189.5 2960.5,1526.5C 2906.83,1526.67 2853.17,1526.5 2799.5,1526C 2767.33,1485.83 2735.17,1445.67 2703,1405.5C 2702.33,1296.17 2702.33,1186.83 2703,1077.5C 2747.9,1004.22 2767.57,924.556 2762,838.5C 2757.48,769.737 2737.81,705.737 2703,646.5C 2702.5,602.835 2702.33,559.168 2702.5,515.5 Z"/></g>
<g><path style="opacity:0.996" fill="#fefffe" d="M 3011.5,515.5 C 3097.5,515.5 3183.5,515.5 3269.5,515.5C 3269.5,776.167 3269.5,1036.83 3269.5,1297.5C 3467.83,1297.5 3666.17,1297.5 3864.5,1297.5C 3864.5,1373.83 3864.5,1450.17 3864.5,1526.5C 3580.17,1526.5 3295.83,1526.5 3011.5,1526.5C 3011.5,1189.5 3011.5,852.5 3011.5,515.5 Z"/></g>
<g><path style="opacity:0.998" fill="#fefffe" d="M 4547.5,515.5 C 4634.17,515.5 4720.83,515.5 4807.5,515.5C 4807.5,852.5 4807.5,1189.5 4807.5,1526.5C 4720.83,1526.5 4634.17,1526.5 4547.5,1526.5C 4547.5,1391.83 4547.5,1257.17 4547.5,1122.5C 4438.83,1122.5 4330.17,1122.5 4221.5,1122.5C 4221.5,1046.5 4221.5,970.5 4221.5,894.5C 4330.17,894.5 4438.83,894.5 4547.5,894.5C 4547.5,768.167 4547.5,641.833 4547.5,515.5 Z"/></g>
<g><path style="opacity:0.996" fill="#fefffe" d="M 1422.5,517.5 C 1508.4,517.168 1594.24,517.502 1680,518.5C 1910.36,854.029 2140.53,1189.7 2370.5,1525.5C 2267.5,1526.67 2164.5,1526.83 2061.5,1526C 1935.67,1334.83 1809.83,1143.67 1684,952.5C 1682.99,951.663 1681.82,951.33 1680.5,951.5C 1680.5,1143.17 1680.5,1334.83 1680.5,1526.5C 1594.5,1526.5 1508.5,1526.5 1422.5,1526.5C 1422.5,1190.17 1422.5,853.833 1422.5,517.5 Z"/></g>
<g><path style="opacity:0.996" fill="#fefffe" d="M 524.5,518.5 C 598.503,518.167 672.503,518.5 746.5,519.5C 876.584,729.332 1006.42,939.332 1136,1149.5C 1137.16,1139.32 1137.66,1128.99 1137.5,1118.5C 1135.37,993.834 1133.37,869.168 1131.5,744.5C 1081.5,744.5 1031.5,744.5 981.5,744.5C 981.5,669.167 981.5,593.833 981.5,518.5C 1112.5,518.5 1243.5,518.5 1374.5,518.5C 1374.5,854.5 1374.5,1190.5 1374.5,1526.5C 1299.83,1526.67 1225.17,1526.5 1150.5,1526C 1022.54,1321.92 894.708,1117.75 767,913.5C 765.764,914.399 764.93,915.566 764.5,917C 767.276,1120.14 769.61,1323.3 771.5,1526.5C 689.167,1526.5 606.833,1526.5 524.5,1526.5C 524.5,1190.5 524.5,854.5 524.5,518.5 Z"/></g>
<g><path style="opacity:0.997" fill="#fefffe" d="M 3912.5,522.5 C 3998.17,522.5 4083.83,522.5 4169.5,522.5C 4169.5,858.833 4169.5,1195.17 4169.5,1531.5C 4083.5,1531.5 3997.5,1531.5 3911.5,1531.5C 3911.5,1340.17 3911.5,1148.83 3911.5,957.5C 3910.02,957.238 3908.69,957.571 3907.5,958.5C 3843.71,1055.25 3780.04,1152.08 3716.5,1249C 3615.83,1249.67 3515.17,1249.67 3414.5,1249C 3580.75,1006.93 3746.75,764.768 3912.5,522.5 Z"/></g>
</svg>
